<svg id="Capa_1" enable-background="new 0 0 512 512" height="512" viewBox="0 0 512 512" width="512" xmlns="http://www.w3.org/2000/svg" xmlns:xlink="http://www.w3.org/1999/xlink"><linearGradient id="SVGID_1_" gradientUnits="userSpaceOnUse" x1="256" x2="256" y1="481" y2="31"><stop offset="0" stop-color="#fd5900"/><stop offset="1" stop-color="#ffde00"/></linearGradient><g><g><path d="m211 196c0 24.813 20.187 45 45 45s45-20.187 45-45-20.187-45-45-45-45 20.187-45 45zm60 0c0 8.271-6.729 15-15 15s-15-6.729-15-15 6.729-15 15-15 15 6.729 15 15zm235.881 49.715c-.115-.101-235.953-206.581-241-211-5.656-4.953-14.105-4.953-19.762 0-13.145 11.508-229.229 200.694-241 211-6.233 5.457-6.862 14.934-1.405 21.167 5.458 6.234 14.934 6.862 21.167 1.405l36.119-31.624v229.337c0 8.284 6.716 15 15 15h360c8.284 0 15-6.716 15-15v-229.337l36.119 31.623c6.26 5.481 15.733 4.801 21.167-1.405 5.457-6.233 4.828-15.709-1.405-21.166zm-205.881 205.285h-90v-120h90zm120 0h-90v-135c0-8.284-6.716-15-15-15h-120c-8.284 0-15 6.716-15 15v135h-90v-240.603l165-144.46 165 144.461z" fill="url(#SVGID_1_)"/></g></g></svg>