<?xml version="1.0" encoding="iso-8859-1"?>
<!-- Generator: Adobe Illustrator 19.0.0, SVG Export Plug-In . SVG Version: 6.00 Build 0)  -->
<svg version="1.1" id="Layer_1" xmlns="http://www.w3.org/2000/svg" xmlns:xlink="http://www.w3.org/1999/xlink" x="0px" y="0px"
	 viewBox="0 0 512 512" style="enable-background:new 0 0 512 512;" xml:space="preserve">
<path style="fill:#FFFFFF;" d="M372.809,508H94.315c-15.735-0.04-28.477-12.783-28.517-28.517V32.517
	C65.838,16.782,78.581,4.04,94.315,4h323.378c15.735,0.04,28.477,12.783,28.517,28.517v402.306"/>
<path style="fill:#8E8E8E;" d="M372.817,512H94.315c-17.95-0.024-32.501-14.575-32.517-32.525V32.517
	C61.814,14.567,76.365,0.024,94.315,0h323.378c17.95,0.024,32.485,14.567,32.509,32.517v402.298h-7.999V32.517
	C442.179,18.99,431.22,8.023,417.685,7.999H94.315C80.78,8.015,69.813,18.982,69.797,32.517v446.958
	c0.016,13.535,10.983,24.502,24.518,24.518h278.51V512H372.817z"/>
<path style="fill:#333333;" d="M372.809,450.246v61.706l77.129-77.129h-61.682C379.744,434.839,372.841,441.727,372.809,450.246z"/>
<g>
	<path style="fill:#E21B1B;" d="M188.762,308.603l-19.198,63.138h-41.948l71.393-222.787H250.9l72.393,222.787H279.65
		l-20.182-63.138H188.762z M252.556,277.862l-17.518-54.867c-4.296-13.543-7.935-28.757-11.199-41.644h-0.664
		c-3.304,12.887-6.615,28.429-10.575,41.644l-17.19,54.867H252.556z"/>
	<path style="fill:#E21B1B;" d="M350.659,147.53v40.388h38.78v13.935h-38.78v40.748h-14.663v-40.748h-38.772v-13.935h38.78V147.53
		H350.659z"/>
</g>
<g>
</g>
<g>
</g>
<g>
</g>
<g>
</g>
<g>
</g>
<g>
</g>
<g>
</g>
<g>
</g>
<g>
</g>
<g>
</g>
<g>
</g>
<g>
</g>
<g>
</g>
<g>
</g>
<g>
</g>
</svg>
