<svg height="512" viewBox="0 0 64 64" width="512" xmlns="http://www.w3.org/2000/svg"><g id="Multiplayer-Gamer-Computer-Player-Team"><path d="m29 35.9v3.1h-24v-3.1a6.8 6.8 0 0 1 .06-.9 6.04 6.04 0 0 1 3.5-4.58l5.44-2.42a3 3 0 0 0 6 0l5.44 2.42a6.04 6.04 0 0 1 3.5 4.58 6.8 6.8 0 0 1 .06.9z" fill="#3d9ae2"/><path d="m58.94 35a6.04 6.04 0 0 0 -3.5-4.58l-5.44-2.42a3 3 0 0 1 -6 0l-5.44 2.42a6.04 6.04 0 0 0 -3.5 4.58 6.8 6.8 0 0 0 -.06.9v3.1h24v-3.1a6.8 6.8 0 0 0 -.06-.9z" fill="#3d9ae2"/><path d="m24 57v4h-14v-4h4 6z" fill="#acabb1"/><path d="m20 25v3a3 3 0 0 1 -6 0v-3z" fill="#ffc477"/><path d="m20 25v2.32a6.958 6.958 0 0 1 -6 0v-2.32z" fill="#ffb655"/><circle cx="25" cy="17" fill="#cc7400" r="3"/><circle cx="9" cy="17" fill="#cc7400" r="3"/><path d="m24 15v4a7 7 0 0 1 -14 0v-4h6l4-2 2 2z" fill="#ffc477"/><path d="m23.95 14.2a7.012 7.012 0 0 1 .05.8h-2l-2-2-4 2h-6a7 7 0 0 1 11.95-4.95 6.934 6.934 0 0 1 2 4.15z" fill="#57565c"/><path d="m50 25v3a3 3 0 0 1 -6 0v-3z" fill="#ffc477"/><path d="m50 25v2.32a6.958 6.958 0 0 1 -6 0v-2.32z" fill="#ffb655"/><circle cx="55" cy="17" fill="#cc7400" r="3"/><circle cx="39" cy="17" fill="#cc7400" r="3"/><path d="m54 15v4a7 7 0 0 1 -14 0v-4h6l4-2 2 2z" fill="#ffc477"/><path d="m53.95 14.2a7.012 7.012 0 0 1 .05.8h-2l-2-2-4 2h-6a7 7 0 0 1 11.95-4.95 6.934 6.934 0 0 1 2 4.15z" fill="#57565c"/><rect fill="#acabb1" height="18" rx="2" width="28" x="3" y="35"/><path d="m14 47v6 4h6v-4-6z" fill="#d8d7da"/><path d="m54 57v4h-14v-4h4 6z" fill="#acabb1"/><rect fill="#acabb1" height="18" rx="2" width="28" x="33" y="35"/><path d="m44 47v6 4h6v-4-6z" fill="#d8d7da"/><path d="m13 17h2v2h-2z"/><path d="m19 17h2v2h-2z"/><path d="m43 17h2v2h-2z"/><path d="m49 17h2v2h-2z"/><path d="m59 54a3.009 3.009 0 0 0 3-3v-14a2.994 2.994 0 0 0 -2.23-2.89 7.016 7.016 0 0 0 -3.92-4.6l-4.85-2.16v-1.43a8.1 8.1 0 0 0 2.24-1.92h2.76a2.006 2.006 0 0 0 2-2v-2.38a3.932 3.932 0 0 0 0-5.24v-1.38a11 11 0 1 0 -22 0v1.38a3.981 3.981 0 0 0 3 6.62c.09 0 .17-.02.26-.02a7.993 7.993 0 0 0 3.74 4.94v1.43l-4.85 2.16a7.016 7.016 0 0 0 -3.92 4.6 2.994 2.994 0 0 0 -2.23 2.89 2.994 2.994 0 0 0 -2.23-2.89 7.016 7.016 0 0 0 -3.92-4.6l-4.85-2.16v-1.43a8.1 8.1 0 0 0 2.24-1.92h2.76a2.006 2.006 0 0 0 2-2v-2.38a3.932 3.932 0 0 0 0-5.24v-1.38a11 11 0 1 0 -22 0v1.38a3.981 3.981 0 0 0 3 6.62c.09 0 .17-.02.26-.02a7.993 7.993 0 0 0 3.74 4.94v1.43l-4.85 2.16a7.016 7.016 0 0 0 -3.92 4.6 2.994 2.994 0 0 0 -2.23 2.89v14a3.009 3.009 0 0 0 3 3h8v2h-3a1 1 0 0 0 -1 1v3h-7v2h60v-2h-7v-3a1 1 0 0 0 -1-1h-3v-2zm-3-32h-1.59a7.14 7.14 0 0 0 .33-1.02c.09 0 .17.02.26.02a4.091 4.091 0 0 0 1-.14zm1-5a2.006 2.006 0 0 1 -2 2v-4a2.006 2.006 0 0 1 2 2zm-18 2a2 2 0 0 1 0-4zm0-6a4.091 4.091 0 0 0 -1 .14v-.14a9 9 0 0 1 18 0v.14a4.091 4.091 0 0 0 -1-.14c-.09 0-.17.02-.26.02a7.986 7.986 0 0 0 -15.48 0c-.09 0-.17-.02-.26-.02zm13.91 1h-.5l-1.7-1.71a1.018 1.018 0 0 0 -1.16-.18l-3.79 1.89h-4.67a5.993 5.993 0 0 1 11.82 0zm-11.91 5v-3h5a1 1 0 0 0 .45-.11l3.35-1.67 1.49 1.49a1.033 1.033 0 0 0 .71.29h1v3a5.984 5.984 0 0 1 -.81 3h-5.19v2h3.31a5.995 5.995 0 0 1 -9.31-5zm8 7.74v1.26a2 2 0 0 1 -4 0v-1.26a7.822 7.822 0 0 0 4 0zm-10.03 4.59 4.3-1.91a3.986 3.986 0 0 0 7.46 0l4.3 1.91a5.026 5.026 0 0 1 2.6 2.67h-21.26a5.026 5.026 0 0 1 2.6-2.67zm-12.97-9.33h-1.59a7.14 7.14 0 0 0 .33-1.02c.09 0 .17.02.26.02a4.091 4.091 0 0 0 1-.14zm1-5a2.006 2.006 0 0 1 -2 2v-4a2.006 2.006 0 0 1 2 2zm-18 2a2 2 0 0 1 0-4zm0-6a4.091 4.091 0 0 0 -1 .14v-.14a9 9 0 0 1 18 0v.14a4.091 4.091 0 0 0 -1-.14c-.09 0-.17.02-.26.02a7.986 7.986 0 0 0 -15.48 0c-.09 0-.17-.02-.26-.02zm13.91 1h-.5l-1.7-1.71a1.018 1.018 0 0 0 -1.16-.18l-3.79 1.89h-4.67a5.993 5.993 0 0 1 11.82 0zm-11.91 5v-3h5a1 1 0 0 0 .45-.11l3.35-1.67 1.49 1.49a1.033 1.033 0 0 0 .71.29h1v3a5.984 5.984 0 0 1 -.81 3h-5.19v2h3.31a5.995 5.995 0 0 1 -9.31-5zm8 7.74v1.26a2 2 0 0 1 -4 0v-1.26a7.822 7.822 0 0 0 4 0zm-10.03 4.59 4.3-1.91a3.986 3.986 0 0 0 7.46 0l4.3 1.91a5.026 5.026 0 0 1 2.6 2.67h-21.26a5.026 5.026 0 0 1 2.6-2.67zm-3.97 20.67a1 1 0 0 1 -1-1v-14a1 1 0 0 1 1-1h24a1 1 0 0 1 1 1v14a1 1 0 0 1 -1 1h-8v-5a1 1 0 0 0 -1-1h-6a1 1 0 0 0 -1 1v5zm14-4v8h-4v-8zm4 12h-12v-2h12zm16-3v3h-14v-3a1 1 0 0 0 -1-1h-3v-2h8a3.009 3.009 0 0 0 3-3 3.009 3.009 0 0 0 3 3h8v2h-3a1 1 0 0 0 -1 1zm14 1v2h-12v-2zm-8-2v-8h4v8zm5-10h-6a1 1 0 0 0 -1 1v5h-8a1 1 0 0 1 -1-1v-14a1 1 0 0 1 1-1h24a1 1 0 0 1 1 1v14a1 1 0 0 1 -1 1h-8v-5a1 1 0 0 0 -1-1z"/></g></svg>