<?xml version="1.0" encoding="iso-8859-1"?>
<!-- Generator: Adobe Illustrator 19.0.0, SVG Export Plug-In . SVG Version: 6.00 Build 0)  -->
<svg version="1.1" id="Layer_1" xmlns="http://www.w3.org/2000/svg" xmlns:xlink="http://www.w3.org/1999/xlink" x="0px" y="0px"
	 viewBox="0 0 512 512" style="enable-background:new 0 0 512 512;" xml:space="preserve">
<rect x="7.604" y="186.683" style="fill:#F7CE4D;" width="496.792" height="265.632"/>
<path id="SVGCleanerId_0" d="M123.338,316.943h19.635c3.359,0,5.296,3.23,5.296,6.717c0,2.971-1.679,6.459-5.296,6.459h-19.635
	v25.964h36.557c3.359,0,5.296,3.488,5.296,7.492c0,3.488-1.679,7.234-5.296,7.234h-45.987c-3.746,0-7.364-1.809-7.364-5.296v-83.836
	c0-3.488,3.616-5.296,7.364-5.296h45.987c3.617,0,5.296,3.746,5.296,7.234c0,4.005-1.937,7.492-5.296,7.492h-36.557L123.338,316.943
	L123.338,316.943z"/>
<path id="SVGCleanerId_1" d="M226.677,335.545l-18.86,33.199c-0.904,1.55-2.583,2.713-4.651,2.713c-4.521,0-10.98-3.746-10.98-8.397
	c0-0.904,0.387-1.938,1.034-3.1l22.348-36.428l-21.573-36.299c-0.775-1.292-1.162-2.454-1.162-3.616c0-4.521,5.942-7.88,10.722-7.88
	c2.583,0,4.392,1.42,5.555,3.616l17.568,31.649l17.568-31.649c1.292-2.196,2.972-3.616,5.684-3.616
	c4.779,0,10.722,3.359,10.722,7.88c0,1.163-0.387,2.325-1.162,3.616l-21.573,36.299l22.348,36.428
	c0.646,1.163,0.904,2.196,0.904,3.1c0,4.65-6.33,8.397-10.98,8.397c-2.067,0-3.746-1.163-4.521-2.713L226.677,335.545z"/>
<path id="SVGCleanerId_2" d="M293.972,281.549c0-3.616,4.134-5.167,8.397-5.167c4.133,0,8.397,1.55,8.397,5.167v83.965
	c0,3.488-4.263,5.296-8.397,5.296c-4.263,0-8.397-1.809-8.397-5.296V281.549z"/>
<path id="SVGCleanerId_3" d="M401.227,276.382c3.616,0,5.296,3.875,5.296,7.492c0,4.005-1.938,7.621-5.296,7.621h-18.86v74.019
	c0,3.488-4.263,5.296-8.397,5.296c-4.262,0-8.396-1.809-8.396-5.296v-74.019h-18.989c-3.359,0-5.296-3.488-5.296-7.621
	c0-3.616,1.679-7.492,5.296-7.492H401.227z"/>
<g>
	<path id="SVGCleanerId_0_1_" d="M123.338,316.943h19.635c3.359,0,5.296,3.23,5.296,6.717c0,2.971-1.679,6.459-5.296,6.459h-19.635
		v25.964h36.557c3.359,0,5.296,3.488,5.296,7.492c0,3.488-1.679,7.234-5.296,7.234h-45.987c-3.746,0-7.364-1.809-7.364-5.296
		v-83.836c0-3.488,3.616-5.296,7.364-5.296h45.987c3.617,0,5.296,3.746,5.296,7.234c0,4.005-1.937,7.492-5.296,7.492h-36.557
		L123.338,316.943L123.338,316.943z"/>
</g>
<g>
	<path id="SVGCleanerId_1_1_" d="M226.677,335.545l-18.86,33.199c-0.904,1.55-2.583,2.713-4.651,2.713
		c-4.521,0-10.98-3.746-10.98-8.397c0-0.904,0.387-1.938,1.034-3.1l22.348-36.428l-21.573-36.299
		c-0.775-1.292-1.162-2.454-1.162-3.616c0-4.521,5.942-7.88,10.722-7.88c2.583,0,4.392,1.42,5.555,3.616l17.568,31.649
		l17.568-31.649c1.292-2.196,2.972-3.616,5.684-3.616c4.779,0,10.722,3.359,10.722,7.88c0,1.163-0.387,2.325-1.162,3.616
		l-21.573,36.299l22.348,36.428c0.646,1.163,0.904,2.196,0.904,3.1c0,4.65-6.33,8.397-10.98,8.397c-2.067,0-3.746-1.163-4.521-2.713
		L226.677,335.545z"/>
</g>
<g>
	<path id="SVGCleanerId_2_1_" d="M293.972,281.549c0-3.616,4.134-5.167,8.397-5.167c4.133,0,8.397,1.55,8.397,5.167v83.965
		c0,3.488-4.263,5.296-8.397,5.296c-4.263,0-8.397-1.809-8.397-5.296V281.549z"/>
</g>
<g>
	<path id="SVGCleanerId_3_1_" d="M401.227,276.382c3.616,0,5.296,3.875,5.296,7.492c0,4.005-1.938,7.621-5.296,7.621h-18.86v74.019
		c0,3.488-4.263,5.296-8.397,5.296c-4.262,0-8.396-1.809-8.396-5.296v-74.019h-18.989c-3.359,0-5.296-3.488-5.296-7.621
		c0-3.616,1.679-7.492,5.296-7.492H401.227z"/>
</g>
<circle style="fill:#32A8EA;" cx="256" cy="83.309" r="23.64"/>
<path d="M434.443,444.708H15.208V262.719c0-4.199-3.405-7.604-7.604-7.604S0,258.52,0,262.719v189.592
	c0,4.199,3.405,7.604,7.604,7.604h426.839c4.199,0,7.604-3.405,7.604-7.604C442.047,448.112,438.643,444.708,434.443,444.708z"/>
<path d="M504.396,179.076H362.515l-79.71-79.71c7.184-11.999,5.616-27.816-4.712-38.145c-12.183-12.183-32.004-12.183-44.186,0
	c-10.328,10.328-11.896,26.145-4.712,38.145l-79.71,79.71H7.604C3.405,179.076,0,182.48,0,186.68v50.693
	c0,4.199,3.405,7.604,7.604,7.604s7.604-3.405,7.604-7.604v-43.089h481.584v250.424h-37.003c-4.199,0-7.604,3.405-7.604,7.604
	c0,4.199,3.405,7.604,7.604,7.604h44.607c4.199,0,7.604-3.405,7.604-7.604V186.68C512,182.48,508.595,179.076,504.396,179.076z
	 M244.66,71.976c3.126-3.126,7.233-4.689,11.34-4.689c4.107,0,8.213,1.563,11.34,4.689c6.252,6.252,6.252,16.427,0,22.679
	c-6.253,6.252-16.427,6.252-22.679,0C238.408,88.402,238.407,78.228,244.66,71.976z M239.949,110.12
	c4.922,2.947,10.486,4.424,16.051,4.424c5.565,0,11.129-1.478,16.051-4.424l68.957,68.957H170.993L239.949,110.12z"/>
<g>
</g>
<g>
</g>
<g>
</g>
<g>
</g>
<g>
</g>
<g>
</g>
<g>
</g>
<g>
</g>
<g>
</g>
<g>
</g>
<g>
</g>
<g>
</g>
<g>
</g>
<g>
</g>
<g>
</g>
</svg>
